HIERARCHY
ROOT Hips
{
    OFFSET   0.000000   0.000000   0.000000
    CHANNELS 6 Xposition Yposition Zposition Zrotation Xrotation Yrotation
    JOINT Chest
    {
        OFFSET   0.000000   8.007230   0.000000
        CHANNELS 3 Zrotation Xrotation Yrotation
        JOINT Chest2
        {
            OFFSET   0.000000  22.077100   0.000000
            CHANNELS 3 Zrotation Xrotation Yrotation
            JOINT Neck
            {
                OFFSET   0.000000  23.255100   0.000000
                CHANNELS 3 Zrotation Xrotation Yrotation
                JOINT Head
                {
                    OFFSET   0.000000  14.370100   1.956600
                    CHANNELS 3 Zrotation Xrotation Yrotation
                    End Site
                    {
                        OFFSET   0.000000  19.566000   0.000000
                    }
                }
            }
            JOINT LeftCollar
            {
                OFFSET   3.911900  19.017000  -0.467063
                CHANNELS 3 Zrotation Xrotation Yrotation
                JOINT LeftShoulder
                {
                    OFFSET  10.383700   0.000000   0.000000
                    CHANNELS 3 Zrotation Xrotation Yrotation
                    JOINT LeftElbow
                    {
                        OFFSET  26.662100   0.001193   0.000980
                        CHANNELS 3 Zrotation Xrotation Yrotation
                        JOINT LeftWrist
                        {
                            OFFSET  28.869000  -0.000059  -0.000082
                            CHANNELS 3 Zrotation Xrotation Yrotation
                            JOINT LeftFinger0
                            {
                                OFFSET   2.044650  -2.323450   3.252850
                                CHANNELS 3 Zrotation Xrotation Yrotation
                                JOINT LeftFinger01
                                {
                                    OFFSET   3.088130   0.000000   0.000000
                                    CHANNELS 3 Zrotation Xrotation Yrotation
                                    JOINT LeftFinger02
                                    {
                                        OFFSET   2.639460   0.000000   0.000000
                                        CHANNELS 3 Zrotation Xrotation Yrotation
                                        End Site
                                        {
                                            OFFSET   2.582190   0.000000   0.000000
                                        }
                                    }
                                }
                            }
                            JOINT LeftFinger1
                            {
                                OFFSET   8.364480   0.000000   3.252850
                                CHANNELS 3 Zrotation Xrotation Yrotation
                                JOINT LeftFinger11
                                {
                                    OFFSET   4.646930   0.000000   0.000000
                                    CHANNELS 3 Zrotation Xrotation Yrotation
                                    JOINT LeftFinger12
                                    {
                                        OFFSET   2.323470   0.000000   0.000000
                                        CHANNELS 3 Zrotation Xrotation Yrotation
                                        End Site
                                        {
                                            OFFSET   2.273050   0.000000   0.000000
                                        }
                                    }
                                }
                            }
                            JOINT LeftFinger2
                            {
                                OFFSET   8.364490   0.000016   1.078090
                                CHANNELS 3 Zrotation Xrotation Yrotation
                                JOINT LeftFinger21
                                {
                                    OFFSET   5.111610   0.000000   0.000000
                                    CHANNELS 3 Zrotation Xrotation Yrotation
                                    JOINT LeftFinger22
                                    {
                                        OFFSET   2.788150   0.000016   0.000000
                                        CHANNELS 3 Zrotation Xrotation Yrotation
                                        End Site
                                        {
                                            OFFSET   2.727660   0.000000   0.000000
                                        }
                                    }
                                }
                            }
                            JOINT LeftFinger3
                            {
                                OFFSET   7.899780   0.000015  -1.078090
                                CHANNELS 3 Zrotation Xrotation Yrotation
                                JOINT LeftFinger31
                                {
                                    OFFSET   4.646930   0.000000   0.000000
                                    CHANNELS 3 Zrotation Xrotation Yrotation
                                    JOINT LeftFinger32
                                    {
                                        OFFSET   2.323470   0.000000   0.000000
                                        CHANNELS 3 Zrotation Xrotation Yrotation
                                        End Site
                                        {
                                            OFFSET   2.273050   0.000000   0.000000
                                        }
                                    }
                                }
                            }
                            JOINT LeftFinger4
                            {
                                OFFSET   7.435090   0.000000  -3.252850
                                CHANNELS 3 Zrotation Xrotation Yrotation
                                JOINT LeftFinger41
                                {
                                    OFFSET   3.717550   0.000000   0.000000
                                    CHANNELS 3 Zrotation Xrotation Yrotation
                                    JOINT LeftFinger42
                                    {
                                        OFFSET   1.858770   0.000000   0.000000
                                        CHANNELS 3 Zrotation Xrotation Yrotation
                                        End Site
                                        {
                                            OFFSET   1.818440   0.000000   0.000000
                                        }
                                    }
                                }
                            }
                        }
                    }
                }
            }
            JOINT RightCollar
            {
                OFFSET  -3.911910  19.017000  -0.467062
                CHANNELS 3 Zrotation Xrotation Yrotation
                JOINT RightShoulder
                {
                    OFFSET -10.383700   0.000014   0.000000
                    CHANNELS 3 Zrotation Xrotation Yrotation
                    JOINT RightElbow
                    {
                        OFFSET -26.662100   0.001225   0.001091
                        CHANNELS 3 Zrotation Xrotation Yrotation
                        JOINT RightWrist
                        {
                            OFFSET -28.869000  -0.000020  -0.000085
                            CHANNELS 3 Zrotation Xrotation Yrotation
                            JOINT RightFinger0
                            {
                                OFFSET  -2.044650  -2.323490   3.252850
                                CHANNELS 3 Zrotation Xrotation Yrotation
                                JOINT RightFinger01
                                {
                                    OFFSET  -3.088130   0.000000   0.000000
                                    CHANNELS 3 Zrotation Xrotation Yrotation
                                    JOINT RightFinger02
                                    {
                                        OFFSET  -2.639460   0.000000   0.000000
                                        CHANNELS 3 Zrotation Xrotation Yrotation
                                        End Site
                                        {
                                            OFFSET  -2.582190   0.000000   0.000000
                                        }
                                    }
                                }
                            }
                            JOINT RightFinger1
                            {
                                OFFSET  -8.364480   0.000000   3.252850
                                CHANNELS 3 Zrotation Xrotation Yrotation
                                JOINT RightFinger11
                                {
                                    OFFSET  -4.646930   0.000000   0.000000
                                    CHANNELS 3 Zrotation Xrotation Yrotation
                                    JOINT RightFinger12
                                    {
                                        OFFSET  -2.323470   0.000000   0.000000
                                        CHANNELS 3 Zrotation Xrotation Yrotation
                                        End Site
                                        {
                                            OFFSET  -2.273050   0.000000   0.000000
                                        }
                                    }
                                }
                            }
                            JOINT RightFinger2
                            {
                                OFFSET  -8.364480   0.000000   1.078090
                                CHANNELS 3 Zrotation Xrotation Yrotation
                                JOINT RightFinger21
                                {
                                    OFFSET  -5.111620   0.000000   0.000000
                                    CHANNELS 3 Zrotation Xrotation Yrotation
                                    JOINT RightFinger22
                                    {
                                        OFFSET  -2.788160   0.000000   0.000000
                                        CHANNELS 3 Zrotation Xrotation Yrotation
                                        End Site
                                        {
                                            OFFSET  -2.727660   0.000000   0.000000
                                        }
                                    }
                                }
                            }
                            JOINT RightFinger3
                            {
                                OFFSET  -7.899780   0.000000  -1.078090
                                CHANNELS 3 Zrotation Xrotation Yrotation
                                JOINT RightFinger31
                                {
                                    OFFSET  -4.646930   0.000000   0.000000
                                    CHANNELS 3 Zrotation Xrotation Yrotation
                                    JOINT RightFinger32
                                    {
                                        OFFSET  -2.323470   0.000000   0.000000
                                        CHANNELS 3 Zrotation Xrotation Yrotation
                                        End Site
                                        {
                                            OFFSET  -2.273050   0.000000   0.000000
                                        }
                                    }
                                }
                            }
                            JOINT RightFinger4
                            {
                                OFFSET  -7.435090   0.000000  -3.252850
                                CHANNELS 3 Zrotation Xrotation Yrotation
                                JOINT RightFinger41
                                {
                                    OFFSET  -3.717550   0.000000   0.000000
                                    CHANNELS 3 Zrotation Xrotation Yrotation
                                    JOINT RightFinger42
                                    {
                                        OFFSET  -1.858760   0.000000   0.000000
                                        CHANNELS 3 Zrotation Xrotation Yrotation
                                        End Site
                                        {
                                            OFFSET  -1.818440   0.000000   0.000000
                                        }
                                    }
                                }
                            }
                        }
                    }
                }
            }
        }
    }
    JOINT LeftHip
    {
        OFFSET   9.783030   0.000000   0.000000
        CHANNELS 3 Zrotation Xrotation Yrotation
        JOINT LeftKnee
        {
            OFFSET   0.000063 -41.789100   0.000608
            CHANNELS 3 Zrotation Xrotation Yrotation
            JOINT LeftAnkle
            {
                OFFSET   0.000048 -41.133200  -0.000184
                CHANNELS 3 Zrotation Xrotation Yrotation
                JOINT LeftToe
                {
                    OFFSET   0.000000  -6.358960  14.674500
                    CHANNELS 3 Zrotation Xrotation Yrotation
                    End Site
                    {
                        OFFSET   0.000000   0.000000   3.913200
                    }
                }
            }
        }
    }
    JOINT RightHip
    {
        OFFSET  -9.783030   0.000000   0.000000
        CHANNELS 3 Zrotation Xrotation Yrotation
        JOINT RightKnee
        {
            OFFSET   0.000071 -41.789100   0.001239
            CHANNELS 3 Zrotation Xrotation Yrotation
            JOINT RightAnkle
            {
                OFFSET   0.000037 -41.133200  -0.000166
                CHANNELS 3 Zrotation Xrotation Yrotation
                JOINT RightToe
                {
                    OFFSET   0.000000  -6.358960  14.674500
                    CHANNELS 3 Zrotation Xrotation Yrotation
                    End Site
                    {
                        OFFSET   0.000000   0.000000   3.913200
                    }
                }
            }
        }
    }
}
MOTION
Frames: 5
Frame Time:   0.016667
 -0.682537  89.407500  -0.743051  -7.330850 -16.472100 -13.742200   2.418620  12.768000  -0.137411   5.066220  25.517700  -0.877960   3.036320  -0.643401   0.033007   4.990280  -1.293430   1.706930  -4.973300  -6.374320   0.062718 -63.328000  33.885600 -12.142600  -2.769510  -6.705960 -25.334800  15.670700 -14.100800   4.507820  35.634900  29.856000 -60.057800 -35.280600   0.000860   0.000668 -12.640300   0.000115  -0.001193 -31.293300   5.145910  -8.393810 -25.912700   0.003943  -0.002468 -18.138900   0.005082  -0.002193 -29.284300   1.798900  -3.203830 -44.002000  -0.002537   0.002573 -29.305300  -0.002831   0.002626 -28.671300   1.350630  -2.468510 -38.991500  -0.000904   0.004265 -25.968300  -0.003629   0.002667 -33.481000   0.578110  -0.873840 -50.228000  -0.001677   0.000490 -33.451900  -0.003772  -0.003409  13.224800  -3.285250  12.291300  50.454400  -0.770884  15.785800 -28.921200 -18.348700  37.769100  20.378600 -41.456300  37.265500 -38.568700  39.860800  77.474400  34.468800   0.002881  -0.001932  12.234400   0.001364   0.000639  17.303500   4.829670  15.125000  14.682000   0.003126   0.002123  10.277400   0.002989   0.001033  20.198100   3.043210   8.212690  20.416300   0.002364  -0.004106  13.597200   0.001472  -0.002218  15.155000   0.829866   3.062130  15.177400   0.001919  -0.001113  10.108100   0.001184  -0.001261  22.155700   1.197090   2.937700  33.279800   0.010083  -0.008493  22.164300   0.005155  -0.004322   3.058330  20.785600   7.854220   0.650064   0.079035  11.295600  -1.246530  -3.688510   2.535420  -0.000000   0.000000   0.000000   4.454730  17.124200   1.510810  -1.323600   4.147140  -5.610670   0.673585  -4.120870   5.047760   0.000000   0.000000   0.000000
 -0.662764  89.415500  -0.710039  -7.309620 -16.411200 -13.742600   2.403230  12.696900  -0.114516   5.026120  25.376800  -0.822539   3.036240  -0.624036   0.032861   4.990940  -1.254540   1.811750  -4.975020  -6.320850   0.101618 -63.574300  33.782900 -11.976400  -2.789010  -6.630370 -25.079000  15.728700 -14.117300   4.553770  35.510100  29.606200 -59.918800 -35.299500   0.000935   0.000746 -12.649800   0.000149  -0.001218 -31.365900   5.145720  -8.365310 -25.971300   0.003934  -0.002447 -18.179900   0.005117  -0.002157 -29.317800   1.770000  -3.147940 -44.050000  -0.002537   0.002570 -29.337300  -0.002831   0.002590 -28.674900   1.327980  -2.426440 -39.117500  -0.000904   0.004262 -26.052200  -0.003628   0.002715 -33.563400   0.560393  -0.844564 -50.351300  -0.001678   0.000512 -33.534000  -0.003768  -0.003357  13.153100  -3.304120  12.293800  50.190500  -0.355748  15.729800 -29.135300 -18.676700  37.657800  20.337000 -41.439200  37.208200 -38.781900  39.991100  77.599300  34.324900   0.002881  -0.001943  12.162400   0.001365   0.000645  17.513300   4.874400  15.081500  14.856900   0.003212   0.002120  10.399800   0.003042   0.000896  20.404800   3.067780   8.186630  20.623800   0.002497  -0.003789  13.735400   0.001544  -0.002861  15.257000   0.839785   3.074200  15.279500   0.001847  -0.001266  10.176100   0.001254  -0.001365  22.255400   1.207600   2.948550  33.429800   0.010410  -0.008932  22.264300   0.005204  -0.004704   3.049400  20.729900   7.767180   0.613223   0.080952  11.239000  -1.190740  -3.712280   2.686360   0.000000   0.000000  -0.000000   4.401170  17.162900   1.534170  -1.289520   4.029600  -5.641000   0.670275  -4.115740   5.048370   0.000000   0.000000  -0.000000
 -0.644010  89.423000  -0.677756  -7.279970 -16.342400 -13.757400   2.383220  12.619800  -0.089267   4.975740  25.224300  -0.760891   3.035770  -0.613267   0.032724   4.989180  -1.233010   1.916820  -4.980320  -6.267590   0.147793 -63.853000  33.573300 -11.754100  -2.812900  -6.567290 -24.870100  15.744400 -14.142500   4.583060  35.455500  29.497200 -59.878400 -35.302200   0.001012   0.000812 -12.651100   0.000177  -0.001242 -31.411700   5.145770  -8.355130 -26.008200   0.003925  -0.002427 -18.205700   0.005153  -0.002119 -29.347200   1.749650  -3.108340 -44.092000  -0.002536   0.002568 -29.365300  -0.002832   0.002553 -28.676700   1.314460  -2.401260 -39.204400  -0.000904   0.004258 -26.110100  -0.003627   0.002763 -33.622700   0.547642  -0.823504 -50.439900  -0.001679   0.000534 -33.593000  -0.003764  -0.003304  13.088600  -3.323000  12.296200  50.002900   0.044700  15.649200 -29.319600 -18.998500  37.628100  20.170500 -41.248500  36.995600 -38.988600  40.146400  77.714300  34.242900   0.002881  -0.001949  12.121400   0.001366   0.000652  17.728700   4.908380  14.985300  15.032500   0.003310   0.002117  10.522800   0.003110   0.000754  20.620500   3.080620   8.129040  20.838400   0.002640  -0.003483  13.878400   0.001622  -0.003502  15.430100   0.852686   3.085850  15.453200   0.001808  -0.001420  10.291800   0.001392  -0.001471  22.359800   1.218450   2.959170  33.586900   0.010714  -0.009343  22.368900   0.005265  -0.005075   3.032610  20.682200   7.689630   0.572068   0.081230  11.217700  -1.136180  -3.731140   2.820090  -0.000000   0.000000  -0.000000   4.341980  17.186600   1.569730  -1.255880   3.909570  -5.658370   0.666807  -4.106940   5.051280  -0.000000   0.000000   0.000000
 -0.622971  89.429400  -0.643730  -7.245580 -16.264400 -13.803900   2.356440  12.534400  -0.058751   4.909880  25.055000  -0.686387   2.996400  -0.618713   0.032565   4.923950  -1.244120   2.012710  -4.993770  -6.206260   0.208679 -64.137000  33.333600 -11.499700  -2.845390  -6.534800 -24.717500  15.637300 -14.158300   4.581370  35.531700  29.628800 -59.990800 -35.259000   0.001087   0.000837 -12.629500   0.000207  -0.001286 -31.386300   5.170960  -8.403750 -25.990700   0.003908  -0.002412 -18.193400   0.005196  -0.002079 -29.313300   1.758930  -3.129200 -44.042000  -0.002537   0.002574 -29.332000  -0.002834   0.002513 -28.673500   1.335790  -2.440480 -39.159900  -0.000904   0.004253 -26.080500  -0.003629   0.002807 -33.598300   0.552875  -0.832237 -50.403400  -0.001680   0.000553 -33.568700  -0.003770  -0.003250  13.046800  -3.292700  12.293200  49.940400   0.256920  15.571100 -29.492100 -19.189000  37.728300  19.686200 -40.677400  36.426500 -39.014600  40.170700  77.680900  34.251600   0.002878  -0.001918  12.125800   0.001368   0.000652  17.944700   4.927630  14.866000  15.206500   0.003416   0.002119  10.644600   0.003184   0.000623  20.842600   3.085800   8.057210  21.058600   0.002807  -0.003204  14.025100   0.001697  -0.004138  15.615600   0.878634   3.125270  15.639400   0.001814  -0.001563  10.415800   0.001569  -0.001584  22.450300   1.240820   2.995670  33.723800   0.010984  -0.009713  22.460000   0.005338  -0.005436   2.993070  20.648500   7.621170   0.542611   0.041416  11.248000  -1.090180  -3.738670   2.923980  -0.000000   0.000000   0.000000   4.263350  17.190100   1.595980  -1.215770   3.799290  -5.652570   0.673257  -4.097280   5.072640  -0.000000   0.000000  -0.000000
 -0.605568  89.435800  -0.605955  -7.205650 -16.183300 -13.840800   2.326360  12.443800  -0.029222   4.837460  24.875500  -0.613071   2.926450  -0.634872   0.032472   4.809650  -1.277000   2.100120  -5.012010  -6.138320   0.270341 -64.415500  33.077600 -11.228400  -2.867230  -6.489100 -24.595500  15.510300 -14.165800   4.576170  35.648700  29.829400 -60.155300 -35.197200   0.001162   0.000864 -12.598600   0.000237  -0.001334 -31.344900   5.208580  -8.477490 -25.961900   0.003890  -0.002396 -18.173300   0.005239  -0.002038 -29.255900   1.776790  -3.168380 -43.957500  -0.002537   0.002580 -29.275700  -0.002835   0.002474 -28.668500   1.369940  -2.503350 -39.081900  -0.000904   0.004251 -26.028600  -0.003632   0.002848 -33.552600   0.562681  -0.848552 -50.335100  -0.001682   0.000572 -33.523100  -0.003776  -0.003197  13.023900  -3.240030  12.290000  49.902000   0.395523  15.480600 -29.698300 -19.263800  37.825000  18.988800 -39.789800  35.610600 -39.046400  40.138000  77.537100  34.295000   0.002876  -0.001882  12.147500   0.001369   0.000652  18.149600   4.935680  14.707600  15.369400   0.003528   0.002122  10.758600   0.003276   0.000468  21.059200   3.087190   7.961580  21.272700   0.002983  -0.002954  14.167600   0.001777  -0.004760  15.838800   0.896279   3.153290  15.862600   0.001854  -0.001704  10.564500   0.001903  -0.001695  22.546400   1.255850   3.021680  33.868100   0.011223  -0.010042  22.556100   0.005422  -0.005778   2.949160  20.617500   7.560880   0.520025   0.001547  11.289100  -1.054040  -3.751960   3.007220   0.000000   0.000000   0.000000   4.180550  17.190600   1.609880  -1.173170   3.699250  -5.646850   0.681471  -4.091160   5.114260   0.000000   0.000000  -0.000000
